<svg width="21" height="21" viewBox="0 0 21 21" fill="none" xmlns="http://www.w3.org/2000/svg">
<path d="M9.58286 16.2911L9.58366 16.2933C9.65932 16.4979 9.75527 16.6838 9.87857 16.8302C9.99922 16.9735 10.1837 17.1213 10.4338 17.147C10.7008 17.1745 10.9162 17.0512 11.0569 16.9038C11.1911 16.7633 11.279 16.5834 11.3377 16.4045L11.3384 16.4023L12.1608 13.8557L12.2308 13.6392L12.1134 13.4442L10.6233 10.9686L12.024 12.5852L12.1571 12.7388L12.3597 12.756L14.9572 12.976L15.4919 13.0213L15.4993 12.4847C15.5023 12.2714 15.457 12.0877 15.3663 11.9244C15.2894 11.7857 15.1875 11.6798 15.1264 11.6164C15.124 11.6139 15.1216 11.6114 15.1193 11.609L14.2353 10.6524L15.9048 8.42152L15.9226 8.3977L15.9375 8.37194C16.1063 8.07952 16.225 7.69988 16.0649 7.32784C15.9048 6.95564 15.5454 6.77618 15.2013 6.69374L15.2014 6.69372L15.1968 6.69267L7.3164 4.88197L5.68296 4.50665L6.21307 5.05874C6.1826 5.08285 6.15322 5.1091 6.12505 5.1376C5.81446 5.45183 5.79946 5.88804 5.91893 6.23864L5.91883 6.23867L5.92244 6.24859L9.58286 16.2911ZM10.489 0.64187C15.852 0.716344 20.1475 5.18394 20.0718 10.6379C19.996 16.0919 15.5781 20.4385 10.2152 20.3641C4.85224 20.2896 0.556681 15.822 0.63242 10.368C0.708158 4.91399 5.12611 0.567396 10.489 0.64187Z" fill="black"/>
<path d="M9.58286 16.2911L9.58366 16.2933C9.65932 16.4979 9.75527 16.6838 9.87857 16.8302C9.99922 16.9735 10.1837 17.1213 10.4338 17.147C10.7008 17.1745 10.9162 17.0512 11.0569 16.9038C11.1911 16.7633 11.279 16.5834 11.3377 16.4045L11.3384 16.4023L12.1608 13.8557L12.2308 13.6392L12.1134 13.4442L10.6233 10.9686L12.024 12.5852L12.1571 12.7388L12.3597 12.756L14.9572 12.976L15.4919 13.0213L15.4993 12.4847C15.5023 12.2714 15.457 12.0877 15.3663 11.9244C15.2894 11.7857 15.1875 11.6798 15.1264 11.6164C15.124 11.6139 15.1216 11.6114 15.1193 11.609L14.2353 10.6524L15.9048 8.42152L15.9226 8.3977L15.9375 8.37194C16.1063 8.07952 16.225 7.69988 16.0649 7.32784C15.9048 6.95564 15.5454 6.77618 15.2013 6.69374L15.2014 6.69372L15.1968 6.69267L7.3164 4.88197L5.68296 4.50665L6.21307 5.05874C6.1826 5.08285 6.15322 5.1091 6.12505 5.1376C5.81446 5.45183 5.79946 5.88804 5.91893 6.23864L5.91883 6.23867L5.92244 6.24859L9.58286 16.2911ZM10.489 0.64187C15.852 0.716344 20.1475 5.18394 20.0718 10.6379C19.996 16.0919 15.5781 20.4385 10.2152 20.3641C4.85224 20.2896 0.556681 15.822 0.63242 10.368C0.708158 4.91399 5.12611 0.567396 10.489 0.64187Z" stroke="black"/>
<path d="M9.58286 16.2911L9.58366 16.2933C9.65932 16.4979 9.75527 16.6838 9.87857 16.8302C9.99922 16.9735 10.1837 17.1213 10.4338 17.147C10.7008 17.1745 10.9162 17.0512 11.0569 16.9038C11.1911 16.7633 11.279 16.5834 11.3377 16.4045L11.3384 16.4023L12.1608 13.8557L12.2308 13.6392L12.1134 13.4442L10.6233 10.9686L12.024 12.5852L12.1571 12.7388L12.3597 12.756L14.9572 12.976L15.4919 13.0213L15.4993 12.4847C15.5023 12.2714 15.457 12.0877 15.3663 11.9244C15.2894 11.7857 15.1875 11.6798 15.1264 11.6164C15.124 11.6139 15.1216 11.6114 15.1193 11.609L14.2353 10.6524L15.9048 8.42152L15.9226 8.3977L15.9375 8.37194C16.1063 8.07952 16.225 7.69988 16.0649 7.32784C15.9048 6.95564 15.5454 6.77618 15.2013 6.69374L15.2014 6.69372L15.1968 6.69267L7.3164 4.88197L5.68296 4.50665L6.21307 5.05874C6.1826 5.08285 6.15322 5.1091 6.12505 5.1376C5.81446 5.45183 5.79946 5.88804 5.91893 6.23864L5.91883 6.23867L5.92244 6.24859L9.58286 16.2911ZM10.489 0.64187C15.852 0.716344 20.1475 5.18394 20.0718 10.6379C19.996 16.0919 15.5781 20.4385 10.2152 20.3641C4.85224 20.2896 0.556681 15.822 0.63242 10.368C0.708158 4.91399 5.12611 0.567396 10.489 0.64187Z" stroke="black" stroke-opacity="0.2"/>
</svg>
