<svg width="30" height="30" viewBox="0 0 30 30" fill="none" xmlns="http://www.w3.org/2000/svg">
<g filter="url(#filter0_i_17_52)">
<path d="M15 30C23.2863 30 30 23.2863 30 15C30 6.71375 23.2863 0 15 0C6.71375 0 0 6.71375 0 15C0 23.2863 6.71375 30 15 30ZM6.86375 14.675L21.3263 9.09875C21.9975 8.85625 22.5837 9.2625 22.3662 10.2775L22.3675 10.2762L19.905 21.8775C19.7225 22.7 19.2337 22.9 18.55 22.5125L14.8 19.7487L12.9912 21.4913C12.7912 21.6913 12.6225 21.86 12.235 21.86L12.5013 18.0438L19.4513 11.765C19.7537 11.4987 19.3838 11.3488 18.985 11.6138L10.3963 17.0212L6.69375 15.8663C5.89 15.6112 5.8725 15.0625 6.86375 14.675Z" fill="black"/>
</g>
<path d="M6.68387 14.2085L6.68171 14.2093C6.4011 14.319 6.15938 14.4521 5.97609 14.613C5.79549 14.7716 5.63233 14.9938 5.60753 15.2767C5.58134 15.5756 5.71922 15.8218 5.89913 15.9911C6.07191 16.1537 6.30009 16.2659 6.54254 16.3428L6.54485 16.3436L10.2474 17.4986L10.4675 17.5672L10.6626 17.4444L16.457 13.7962L12.1661 17.6727L12.0165 17.8079L12.0025 18.009L11.7362 21.8252L11.6989 22.36H12.235C12.5094 22.36 12.7365 22.2981 12.9346 22.1829C13.1077 22.0824 13.2402 21.9496 13.3318 21.8578C13.3351 21.8545 13.3383 21.8513 13.3415 21.8481L14.843 20.4016L18.2534 22.915L18.2774 22.9327L18.3035 22.9475C18.7039 23.1744 19.1782 23.3051 19.6217 23.1042C20.0632 22.9043 20.288 22.4598 20.3931 21.9858L20.3941 21.9813L22.8566 10.3801L23.2071 8.72858L22.7602 9.17583C22.7015 9.05898 22.6247 8.95228 22.5285 8.8585C22.147 8.48664 21.6111 8.46423 21.1564 8.6285L21.1563 8.62839L21.1464 8.63223L6.68387 14.2085ZM29.5 15C29.5 23.0101 23.0101 29.5 15 29.5C6.98989 29.5 0.5 23.0101 0.5 15C0.5 6.98989 6.98989 0.5 15 0.5C23.0101 0.5 29.5 6.98989 29.5 15Z" stroke="black"/>
<path d="M6.68387 14.2085L6.68171 14.2093C6.4011 14.319 6.15938 14.4521 5.97609 14.613C5.79549 14.7716 5.63233 14.9938 5.60753 15.2767C5.58134 15.5756 5.71922 15.8218 5.89913 15.9911C6.07191 16.1537 6.30009 16.2659 6.54254 16.3428L6.54485 16.3436L10.2474 17.4986L10.4675 17.5672L10.6626 17.4444L16.457 13.7962L12.1661 17.6727L12.0165 17.8079L12.0025 18.009L11.7362 21.8252L11.6989 22.36H12.235C12.5094 22.36 12.7365 22.2981 12.9346 22.1829C13.1077 22.0824 13.2402 21.9496 13.3318 21.8578C13.3351 21.8545 13.3383 21.8513 13.3415 21.8481L14.843 20.4016L18.2534 22.915L18.2774 22.9327L18.3035 22.9475C18.7039 23.1744 19.1782 23.3051 19.6217 23.1042C20.0632 22.9043 20.288 22.4598 20.3931 21.9858L20.3941 21.9813L22.8566 10.3801L23.2071 8.72858L22.7602 9.17583C22.7015 9.05898 22.6247 8.95228 22.5285 8.8585C22.147 8.48664 21.6111 8.46423 21.1564 8.6285L21.1563 8.62839L21.1464 8.63223L6.68387 14.2085ZM29.5 15C29.5 23.0101 23.0101 29.5 15 29.5C6.98989 29.5 0.5 23.0101 0.5 15C0.5 6.98989 6.98989 0.5 15 0.5C23.0101 0.5 29.5 6.98989 29.5 15Z" stroke="black" stroke-opacity="0.2"/>
<defs>
<filter id="filter0_i_17_52" x="0" y="0" width="30" height="34" filterUnits="userSpaceOnUse" color-interpolation-filters="sRGB">
<feFlood flood-opacity="0" result="BackgroundImageFix"/>
<feBlend mode="normal" in="SourceGraphic" in2="BackgroundImageFix" result="shape"/>
<feColorMatrix in="SourceAlpha" type="matrix" values="0 0 0 0 0 0 0 0 0 0 0 0 0 0 0 0 0 0 127 0" result="hardAlpha"/>
<feOffset dy="4"/>
<feGaussianBlur stdDeviation="2"/>
<feComposite in2="hardAlpha" operator="arithmetic" k2="-1" k3="1"/>
<feColorMatrix type="matrix" values="0 0 0 0 0 0 0 0 0 0 0 0 0 0 0 0 0 0 0.25 0"/>
<feBlend mode="normal" in2="shape" result="effect1_innerShadow_17_52"/>
</filter>
</defs>
</svg>
